PathFileType	4	(X/Y/Z)	RBDS08\RBDS08runT35.trc
DataRate	CameraRate	NumFrames	NumMarkers	Units	OrigDataRate	OrigDataStartFrame	OrigNumFrames
150.000000	150.000000	5	33	mm	150.000000	0	4500
Frame#	Time	L.ASIS			L.Heel.Bottom			L.Heel.Lateral			L.Heel.Top			L.Iliac.Crest			L.MT1			L.MT5			L.PSIS			L.Shank.Bottom.Lateral			L.Shank.Bottom.Medial			L.Shank.Top.Lateral			L.Shank.Top.Medial			L.Thigh.Bottom.Lateral			L.Thigh.Bottom.Medial			L.Thigh.Top.Lateral			L.Thigh.Top.Medial			R.ASIS			R.ASY			R.Heel.Bottom			R.Heel.Lateral			R.Heel.Top			R.Iliac.Crest			R.MT1			R.MT5			R.PSIS			R.Shank.Bottom.Lateral			R.Shank.Bottom.Medial			R.Shank.Top.Lateral			R.Shank.Top.Medial			R.Thigh.Bottom.Lateral			R.Thigh.Bottom.Medial			R.Thigh.Top.Lateral			R.Thigh.Top.Medial			
		X1	Y1	Z1	X2	Y2	Z2	X3	Y3	Z3	X4	Y4	Z4	X5	Y5	Z5	X6	Y6	Z6	X7	Y7	Z7	X8	Y8	Z8	X9	Y9	Z9	X10	Y10	Z10	X11	Y11	Z11	X12	Y12	Z12	X13	Y13	Z13	X14	Y14	Z14	X15	Y15	Z15	X16	Y16	Z16	X17	Y17	Z17	X18	Y18	Z18	X19	Y19	Z19	X20	Y20	Z20	X21	Y21	Z21	X22	Y22	Z22	X23	Y23	Z23	X24	Y24	Z24	X25	Y25	Z25	X26	Y26	Z26	X27	Y27	Z27	X28	Y28	Z28	X29	Y29	Z29	X30	Y30	Z30	X31	Y31	Z31	X32	Y32	Z32	X33	Y33	Z33	

1	0	1963.945557003801	999.8687044949845	937.976247618052	1321.182313139713	213.1444786444494	1045.77820375122	1352.541301586023	195.6048347016819	1001.307546236883	1366.870666466069	236.2275442609547	1044.892034326229	1930.3516772735	1083.142860273208	915.4444735334786	1481.95492111419	60.14388886171931	1095.288076597621	1437.938684017814	69.53819199257659	991.119702446447	1802.877839232902	1056.628435386612	1005.765992477863	1453.298469192139	260.1324551098538	985.1976278673027	1425.102134536445	284.144912140953	1020.986585158476	1490.643908936823	328.875510800217	963.9608726813969	1467.682491244282	355.591262016723	1004.326148533743	1734.729483248719	659.9796567243988	900.5593800137532	1679.827447613658	682.667653153795	943.5973788012468	1764.049632168019	766.1115681968981	886.6789319837784	1715.301423827149	786.5637497507295	932.8439346142553	1973.599536354479	1015.609426852264	1159.909590154288	2003.853097136815	264.031036292479	1130.486530604641	1811.20169006735	276.859412342065	1105.942466275139	1838.891816797005	287.7841100029434	1148.81656858694	1841.868206220449	316.397574124923	1100.835175009981	1917.403403925643	1087.353491300078	1198.491144237245	2024.313759748431	193.7640031341262	1100.05182458858	1982.185654056845	218.7403176084195	1197.341984287834	1803.815964758739	1061.147559968403	1108.027549520873	1943.741804733138	393.6473468170537	1151.962290946844	1926.317918279899	405.8498751472993	1101.35906606877	1982.575580452793	464.8616403475068	1153.960168657193	1967.841312139446	474.1775169178884	1103.058080703507	2124.639022476755	711.7282629628494	1190.890787736746	2078.547514196179	668.4495191941525	1153.289318714189	2040.340298255799	779.0588442155693	1215.639103025019	1996.914880734266	736.3283908735631	1183.510813573703	
2	0.006666666666666667	1966.028108761579	1002.042673387656	938.8888522404917	1316.76009442369	229.0986573964578	1047.015845738565	1344.691475320528	209.1959450768211	1001.947499303649	1363.393875333535	248.7696673093752	1043.947394447074	1933.195157089972	1085.233281642699	915.8330936330578	1467.35212935597	66.24710873366352	1092.737967409602	1420.068242283518	76.64339553143665	991.0178425919593	1804.755653735023	1059.643325423006	1005.509948126283	1445.743965697566	268.4523766839722	983.5284188236479	1418.660812283646	292.1264947428883	1020.388781241401	1484.027123273758	336.9965986120488	962.9698691416761	1461.873497662474	363.3392571374096	1004.005247076135	1732.737625071373	665.3146612826708	900.8861814990954	1678.129865433245	688.7689827435428	943.8942817303449	1763.61221580375	770.9848848336198	886.993557514675	1715.340856023788	792.0468591357968	933.4110997785829	1974.324692339329	1018.254095351944	1160.492704995694	2026.430543623112	255.7705000114547	1129.348331857053	1834.751945489341	255.6547647766228	1102.40208721132	1860.854116105018	268.3897546537198	1145.552547984574	1862.685456839401	296.9185051103552	1097.19039524512	1918.35465032708	1091.173952932456	1198.745318563979	2052.180436333595	187.5239114947589	1099.74874505486	2007.057666933183	209.6259986719936	1196.397266893961	1805.433509069105	1064.275346656229	1107.938162810655	1958.335075878037	380.4592018324582	1149.69527749144	1940.94375466214	391.8226869741617	1098.955466572724	1992.843456917462	453.6565609742494	1151.854234942748	1978.552229504224	462.2249543186016	1100.707025571431	2125.132020795552	713.1472505144602	1189.820979422027	2078.206416497438	669.4212750606677	1153.984966832139	2041.526355739387	781.2788302427424	1214.887241103412	1997.419543785714	738.4649170956898	1184.016236830568	
3	0.01333333333333333	1968.01799167947	1004.185862467328	939.7202188462518	1312.188196962032	244.926835085588	1048.065145427385	1336.893144954741	222.7924779666693	1002.439188911593	1359.7298789686	261.3057717962016	1042.984989892218	1935.901226911791	1087.28790634594	916.2065219556068	1452.877776085231	72.6273686206172	1090.250695965486	1402.633606606628	84.0835716950218	990.7983281791667	1806.531835535711	1062.556232006307	1005.291107979487	1438.337034353339	276.8451385137305	981.9175107666889	1412.322642605043	300.2821165425771	1019.741776760795	1477.655801711644	345.0848223731752	961.9975151589201	1456.299008673881	371.141421856957	1003.63408785985	1731.069114155552	670.2903391790144	901.2450382856542	1676.737785316554	694.4553576410101	944.2293568195795	1763.358603492674	775.5372590614415	887.3003790674015	1715.517706066574	797.1698553440115	933.9414307435621	1974.979394983937	1020.775464800044	1161.002241020193	2048.709142308925	247.5691016681143	1128.102904624731	1858.121205782554	234.7206204566717	1098.960468661837	1882.682750252235	249.1890451409658	1142.374719130065	1883.319545189832	277.650642356266	1093.671875972976	1919.266655814726	1094.768158135565	1199.050868327028	2079.599227347052	181.4183954537879	1099.227524068006	2031.699614793577	200.5740941599085	1195.317419324639	1806.992268953842	1067.251717579458	1107.879305244715	1972.802969677655	367.2846782734179	1147.502049789224	1955.401994096675	377.8491142488312	1096.633055845153	2002.998233944045	442.3776705344569	1149.872566285528	1989.078567930693	450.2445265044299	1098.503410562882	2125.403222642505	714.2028094915407	1188.866735015833	2077.658481603761	670.1268042430511	1154.64638352652	2042.509629520505	783.1662756635654	1214.213620491679	1997.733447659286	740.3363336395897	1184.474668645777	
4	0.02	1969.830512336348	1006.282773062679	940.3954977305641	1307.311167350218	260.541167766917	1048.725731467805	1329.173465446882	236.4081348457242	1002.628446965526	1355.690441965924	273.8508969049188	1041.970408637446	1938.329065360075	1089.294882868392	916.5483605486876	1438.616805266576	79.54666754162569	1087.893789170732	1386.003744945449	92.15191543028335	990.3580020430852	1808.116379724659	1065.286976021404	1005.136375333206	1431.190233668169	285.391426530484	980.4090516833746	1406.16442762861	308.7804988039135	1019.002901315356	1471.736738473313	353.1250753201145	961.0628866077636	1451.154392779483	379.0616564243199	1003.170122760836	1730.024097958801	674.5889618829283	901.6667213207396	1675.928631877794	699.3586103521109	944.6314965714682	1763.461436292312	779.4834554903528	887.5913223478834	1715.959159080121	801.6143083492748	934.3956818033162	1975.500595604614	1023.085278444081	1161.368141532872	2070.461671509943	239.5181713588908	1126.6418943182	1881.24488690409	214.2493478428292	1095.724349938965	1904.358556026844	230.3162335934413	1139.376168388987	1903.678417755247	258.7335154646931	1090.423194447335	1920.095270588605	1097.950159742553	1199.442983887653	2106.211752485881	175.6253734725062	1098.257422415344	2055.98603794115	191.6832130047965	1193.948191209966	1808.443209598398	1069.949757548512	1107.873113187954	1987.078434131235	354.1340283139817	1145.468616601027	1969.574608457378	363.9625118953632	1094.495606099936	2012.968577658648	430.9511011417707	1148.147301935408	1999.273670187431	438.192300893949	1096.606934636114	2125.225905876835	714.5567057372388	1188.124755923072	2076.691626334111	670.3224597611789	1155.231416647237	2043.092212799741	784.4197845084801	1213.677754264883	1997.668828973008	741.7081464672813	1184.831312054031	
5	0.02666666666666667	1971.398867538854	1008.314128840792	940.8554659099656	1302.029670410697	275.8773714359518	1048.822756746742	1321.582480674626	250.048755962816	1002.382688226859	1351.151889568805	286.4220556918065	1040.865015642877	1940.361395805275	1091.246065516704	916.8430673655317	1424.655671142211	87.21355374055103	1085.72691275357	1370.498610836258	101.0627381103808	989.6174731995413	1809.439178283659	1067.764266258622	1005.060927661351	1424.412025195017	294.1520213384123	979.035046141565	1400.270920880089	317.7487044446524	1018.140522399672	1466.449068815865	361.1025620839172	960.1831794411252	1446.609567135274	387.1454927384628	1002.581600709126	1729.846048480293	677.9477388438888	902.173472815409	1675.922981729024	703.1752237805673	945.115085737428	1764.061942320068	782.5859203212236	887.8591032161979	1716.767552721872	805.1156920315692	934.738441583453	1975.841756193536	1025.116593911548	1161.536595014835	2091.470772353799	231.713097528433	1124.87433292337	1904.047413508779	194.4042285000197	1092.792681998535	1925.847992646234	211.8940770851593	1136.642448083083	1923.661329063218	240.2867223991025	1087.57441141566	1920.798618233407	1100.573830941177	1199.93271191305	2131.688707029139	170.3083061876731	1096.642534134263	2079.792519721511	183.062754284358	1192.15582186274	1809.7456768544	1072.263292114762	1107.929719488771	2001.093819602635	341.0373149896561	1143.675603132125	1983.340032386284	350.2060576243569	1092.647623839684	2022.689316868874	419.3378630456329	1146.795340766973	2009.001797106237	426.0479243098947	1095.162762506827	2124.406116596584	713.9402016221871	1187.662519570976	2075.126294557389	669.8144717398937	1155.696791456803	2043.105157376796	784.7982451728823	1213.318625154096	1997.066039561292	742.3929357308649	1185.034048986444	
